<svg xmlns="http://www.w3.org/2000/svg" xmlns:xlink="http://www.w3.org/1999/xlink">
  <defs>
    <symbol id="logo" viewBox="0 0 105 100" fill="currentColor">
      <rect width="23" height="23" />
      <rect width="23" height="23" x="82" />
      <rect width="23" height="100" x="41" />
    </symbol>
    <symbol id="x" viewBox="0 0 24 24" fill="currentColor">
      <path d="M18.244 2.25h3.308l-7.227 8.26 8.502 11.24H16.17l-5.214-6.817L4.99 21.75H1.68l7.73-8.835L1.254 2.25H8.08l4.713 6.231zm-1.161 17.52h1.833L7.084 4.126H5.117z" />
    </symbol>
    <symbol id="twitter" viewBox="0 0 512 512" stroke-width="0" stroke="currentColor" fill="currentColor">
      <path d="M459.37 151.716c.325 4.548.325 9.097.325 13.645 0 138.72-105.583 298.558-298.558 298.558-59.452 0-114.68-17.219-161.137-47.106 8.447.974 16.568 1.299 25.34 1.299 49.055 0 94.213-16.568 130.274-44.832-46.132-.975-84.792-31.188-98.112-72.772 6.498.974 12.995 1.624 19.818 1.624 9.421 0 18.843-1.3 27.614-3.573-48.081-9.747-84.143-51.98-84.143-102.985v-1.299c13.969 7.797 30.214 12.67 47.431 13.319-28.264-18.843-46.781-51.005-46.781-87.391 0-19.492 5.197-37.36 14.294-52.954 51.655 63.675 129.3 105.258 216.365 109.807-1.624-7.797-2.599-15.918-2.599-24.04 0-57.828 46.782-104.934 104.934-104.934 30.213 0 57.502 12.67 76.67 33.137 23.715-4.548 46.456-13.32 66.599-25.34-7.798 24.366-24.366 44.833-46.132 57.827 21.117-2.273 41.584-8.122 60.426-16.243-14.292 20.791-32.161 39.308-52.628 54.253z" />
    </symbol>
    <symbol id="github" viewBox="0 0 496 512" stroke-width="0" stroke="currentColor" fill="currentColor">
      <path d="M165.9 397.4c0 2-2.3 3.6-5.2 3.6-3.3.3-5.6-1.3-5.6-3.6 0-2 2.3-3.6 5.2-3.6 3-.3 5.6 1.3 5.6 3.6zm-31.1-4.5c-.7 2 1.3 4.3 4.3 4.9 2.6 1 5.6 0 6.2-2s-1.3-4.3-4.3-5.2c-2.6-.7-5.5.3-6.2 2.3zm44.2-1.7c-2.9.7-4.9 2.6-4.6 4.9.3 2 2.9 3.3 5.9 2.6 2.9-.7 4.9-2.6 4.6-4.6-.3-1.9-3-3.2-5.9-2.9zM244.8 8C106.1 8 0 113.3 0 252c0 110.9 69.8 205.8 169.5 239.2 12.8 2.3 17.3-5.6 17.3-12.1 0-6.2-.3-40.4-.3-61.4 0 0-70 15-84.7-29.8 0 0-11.4-29.1-27.8-36.6 0 0-22.9-15.7 1.6-15.4 0 0 24.9 2 38.6 25.8 21.9 38.6 58.6 27.5 72.9 20.9 2.3-16 8.8-27.1 16-33.7-55.9-6.2-112.3-14.3-112.3-110.5 0-27.5 7.6-41.3 23.6-58.9-2.6-6.5-11.1-33.3 2.6-67.9 20.9-6.5 69 27 69 27 20-5.6 41.5-8.5 62.8-8.5s42.8 2.9 62.8 8.5c0 0 48.1-33.6 69-27 13.7 34.7 5.2 61.4 2.6 67.9 16 17.7 25.8 31.5 25.8 58.9 0 96.5-58.9 104.2-114.8 110.5 9.2 7.9 17 22.9 17 46.4 0 33.7-.3 75.4-.3 83.6 0 6.5 4.6 14.4 17.3 12.1C428.2 457.8 496 362.9 496 252 496 113.3 383.5 8 244.8 8zM97.2 352.9c-1.3 1-1 3.3.7 5.2 1.6 1.6 3.9 2.3 5.2 1 1.3-1 1-3.3-.7-5.2-1.6-1.6-3.9-2.3-5.2-1zm-10.8-8.1c-.7 1.3.3 2.9 2.3 3.9 1.6 1 3.6.7 4.3-.7.7-1.3-.3-2.9-2.3-3.9-2-.6-3.6-.3-4.3.7zm32.4 35.6c-1.6 1.3-1 4.3 1.3 6.2 2.3 2.3 5.2 2.6 6.5 1 1.3-1.3.7-4.3-1.3-6.2-2.2-2.3-5.2-2.6-6.5-1zm-11.4-14.7c-1.6 1-1.6 3.6 0 5.9 1.6 2.3 4.3 3.3 5.6 2.3 1.6-1.3 1.6-3.9 0-6.2-1.4-2.3-4-3.3-5.6-2z" />
    </symbol>
    <symbol id="newspaper" viewBox="0 0 512 512" stroke-width="0" stroke="currentColor" fill="currentColor">
      <path d="M96 96c0-35.3 28.7-64 64-64H448c35.3 0 64 28.7 64 64V416c0 35.3-28.7 64-64 64H80c-44.2 0-80-35.8-80-80V128c0-17.7 14.3-32 32-32s32 14.3 32 32V400c0 8.8 7.2 16 16 16s16-7.2 16-16V96zm64 24v80c0 13.3 10.7 24 24 24H296c13.3 0 24-10.7 24-24V120c0-13.3-10.7-24-24-24H184c-13.3 0-24 10.7-24 24zm208-8c0 8.8 7.2 16 16 16h48c8.8 0 16-7.2 16-16s-7.2-16-16-16H384c-8.8 0-16 7.2-16 16zm0 96c0 8.8 7.2 16 16 16h48c8.8 0 16-7.2 16-16s-7.2-16-16-16H384c-8.8 0-16 7.2-16 16zM160 304c0 8.8 7.2 16 16 16H432c8.8 0 16-7.2 16-16s-7.2-16-16-16H176c-8.8 0-16 7.2-16 16zm0 96c0 8.8 7.2 16 16 16H432c8.8 0 16-7.2 16-16s-7.2-16-16-16H176c-8.8 0-16 7.2-16 16z" />
    </symbol>
    <symbol id="sun" viewBox="0 0 24 24" stroke-width="0" stroke="currentColor" fill="currentColor">
      <path fill="none" d="M0 0h24v24H0z" />
      <path d="M12 7c-2.76 0-5 2.24-5 5s2.24 5 5 5 5-2.24 5-5-2.24-5-5-5zM2 13h2c.55 0 1-.45 1-1s-.45-1-1-1H2c-.55 0-1 .45-1 1s.45 1 1 1zm18 0h2c.55 0 1-.45 1-1s-.45-1-1-1h-2c-.55 0-1 .45-1 1s.45 1 1 1zM11 2v2c0 .55.45 1 1 1s1-.45 1-1V2c0-.55-.45-1-1-1s-1 .45-1 1zm0 18v2c0 .55.45 1 1 1s1-.45 1-1v-2c0-.55-.45-1-1-1s-1 .45-1 1zM5.99 4.58a.996.996 0 00-1.41 0 .996.996 0 000 1.41l1.06 1.06c.39.39 1.03.39 1.41 0s.39-1.03 0-1.41L5.99 4.58zm12.37 12.37a.996.996 0 00-1.41 0 .996.996 0 000 1.41l1.06 1.06c.39.39 1.03.39 1.41 0a.996.996 0 000-1.41l-1.06-1.06zm1.06-10.96a.996.996 0 000-1.41.996.996 0 00-1.41 0l-1.06 1.06c-.39.39-.39 1.03 0 1.41s1.03.39 1.41 0l1.06-1.06zM7.05 18.36a.996.996 0 000-1.41.996.996 0 00-1.41 0l-1.06 1.06c-.39.39-.39 1.03 0 1.41s1.03.39 1.41 0l1.06-1.06z" />
    </symbol>
    <symbol id="moon" viewBox="0 0 24 24" stroke-width="0" stroke="currentColor" fill="currentColor">
      <path fill="none" d="M0 0h24v24H0z" />
      <path d="M12 3a9 9 0 109 9c0-.46-.04-.92-.1-1.36a5.389 5.389 0 01-4.4 2.26 5.403 5.403 0 01-3.14-9.8c-.44-.06-.9-.1-1.36-.1z" />
    </symbol>
    <symbol id="collapse" viewBox="0 0 24 24" stroke-width="0" stroke="currentColor" fill="currentColor">
      <path d="M18 5 12 11 6 5H18ZM18 19 12 13 6 19H18Z" />
    </symbol>
    <symbol id="expand" viewBox="0 0 24 24" stroke-width="0" stroke="currentColor" fill="currentColor">
      <path d="M18 9 12 3 6 9H18ZM18 15 12 21 6 15H18Z" />
    </symbol>
    <symbol id="feed" viewBox="0 0 16 16" stroke-width="0" stroke="currentColor" fill="currentColor">
      <path d="M2 0a2 2 0 0 0-2 2v12a2 2 0 0 0 2 2h12a2 2 0 0 0 2-2V2a2 2 0 0 0-2-2H2zm1.5 2.5c5.523 0 10 4.477 10 10a1 1 0 1 1-2 0 8 8 0 0 0-8-8 1 1 0 0 1 0-2zm0 4a6 6 0 0 1 6 6 1 1 0 1 1-2 0 4 4 0 0 0-4-4 1 1 0 0 1 0-2zm.5 7a1.5 1.5 0 1 1 0-3 1.5 1.5 0 0 1 0 3z" />
    </symbol>
    <symbol id="star" viewBox="0 0 256 256" stroke-width="0" stroke="currentColor" fill="currentColor">
      <path d="M243,96.05a20,20,0,0,0-17.26-13.72l-57-4.93-22.3-53.14h0a20,20,0,0,0-36.82,0L87.29,77.4l-57,4.93A20,20,0,0,0,18.87,117.4l43.32,37.8-13,56.24A20,20,0,0,0,79,233.1l49-29.76,49,29.76a20,20,0,0,0,29.8-21.66l-13-56.24,43.32-37.8A20,20,0,0,0,243,96.05Zm-66.75,42.62a20,20,0,0,0-6.35,19.63l11.39,49.32-42.94-26.08a19.9,19.9,0,0,0-20.7,0L74.71,207.62,86.1,158.3a20,20,0,0,0-6.35-19.63L41.66,105.44,91.8,101.1a19.92,19.92,0,0,0,16.69-12.19L128,42.42l19.51,46.49A19.92,19.92,0,0,0,164.2,101.1l50.14,4.34Z" />
    </symbol>
    <symbol id="calendar" viewBox="0 0 24 24" stroke="currentColor" fill="none" stroke-width="2" stroke-linecap="round" stroke-linejoin="round">
      <rect width="18" height="18" x="3" y="4" rx="2" ry="2" />
      <line x1="16" x2="16" y1="2" y2="6" />
      <line x1="8" x2="8" y1="2" y2="6" />
      <line x1="3" x2="21" y1="10" y2="10" />
      <path d="M8 14h.01" />
      <path d="M12 14h.01" />
      <path d="M16 14h.01" />
      <path d="M8 18h.01" />
      <path d="M12 18h.01" />
      <path d="M16 18h.01" />
    </symbol>
    <symbol id="arrow-up-right" viewBox="0 0 24 24" stroke="currentColor" fill="none" stroke-width="2" stroke-linecap="round" stroke-linejoin="round">
      <path d="M7 7h10v10" />
      <path d="M7 17 17 7" />
    </symbol>
    <symbol id="arrow-left" viewBox="0 0 448 512" stroke-width="0" stroke="currentColor" fill="currentColor">
      <path d="M9.4 233.4c-12.5 12.5-12.5 32.8 0 45.3l160 160c12.5 12.5 32.8 12.5 45.3 0s12.5-32.8 0-45.3L109.2 288 416 288c17.7 0 32-14.3 32-32s-14.3-32-32-32l-306.7 0L214.6 118.6c12.5-12.5 12.5-32.8 0-45.3s-32.8-12.5-45.3 0l-160 160z" />
    </symbol>
  </defs>
</svg>
