<svg xmlns="http://www.w3.org/2000/svg" xmlns:xlink="http://www.w3.org/1999/xlink">
  <defs>
    <symbol id="logo" viewBox="0 0 84 80" fill="currentColor">
      <rect width="20" height="80" x="32" transform="matrix(1, 0, 0, 1, 1.4210854715202004e-14, 0)" />
      <path d="M 58 0 L 84 0 L 84 26 L 58 0 Z" style="paint-order: stroke; transform-origin: 107.721px 44.516px;" />
      <path d="M 0 26 L 0 0 L 26 0 L 0 26 Z" style="paint-order: stroke; transform-origin: 103.578px 42.804px;" />
    </symbol>

    <!-- radix star -->
    <symbol id="star" viewBox="0 0 15 15" fill="none">
      <path d="M6.97942 1.25171L6.9585 1.30199L5.58662 4.60039C5.54342 4.70426 5.44573 4.77523 5.3336 4.78422L1.7727 5.0697L1.71841 5.07405L1.38687 5.10063L1.08608 5.12475C0.820085 5.14607 0.712228 5.47802 0.914889 5.65162L1.14406 5.84793L1.39666 6.06431L1.43802 6.09974L4.15105 8.42374C4.23648 8.49692 4.2738 8.61176 4.24769 8.72118L3.41882 12.196L3.40618 12.249L3.32901 12.5725L3.25899 12.866C3.19708 13.1256 3.47945 13.3308 3.70718 13.1917L3.9647 13.0344L4.24854 12.861L4.29502 12.8326L7.34365 10.9705C7.43965 10.9119 7.5604 10.9119 7.6564 10.9705L10.705 12.8326L10.7515 12.861L11.0354 13.0344L11.2929 13.1917C11.5206 13.3308 11.803 13.1256 11.7411 12.866L11.671 12.5725L11.5939 12.249L11.5812 12.196L10.7524 8.72118C10.7263 8.61176 10.7636 8.49692 10.849 8.42374L13.562 6.09974L13.6034 6.06431L13.856 5.84793L14.0852 5.65162C14.2878 5.47802 14.18 5.14607 13.914 5.12475L13.6132 5.10063L13.2816 5.07405L13.2274 5.0697L9.66645 4.78422C9.55432 4.77523 9.45663 4.70426 9.41343 4.60039L8.04155 1.30199L8.02064 1.25171L7.89291 0.944609L7.77702 0.665992C7.67454 0.419604 7.32551 0.419604 7.22303 0.665992L7.10715 0.944609L6.97942 1.25171ZM7.50003 2.60397L6.50994 4.98442C6.32273 5.43453 5.89944 5.74207 5.41351 5.78103L2.84361 5.98705L4.8016 7.66428C5.17183 7.98142 5.33351 8.47903 5.2204 8.95321L4.62221 11.461L6.8224 10.1171C7.23842 9.86302 7.76164 9.86302 8.17766 10.1171L10.3778 11.461L9.77965 8.95321C9.66654 8.47903 9.82822 7.98142 10.1984 7.66428L12.1564 5.98705L9.58654 5.78103C9.10061 5.74207 8.67732 5.43453 8.49011 4.98442L7.50003 2.60397Z" fill="currentColor" fill-rule="evenodd" clip-rule="evenodd" />
    </symbol>

    <!-- radix calendar -->
    <symbol id="calendar" viewBox="0 0 15 15" fill="none">
      <path d="M4.5 1C4.77614 1 5 1.22386 5 1.5V2H10V1.5C10 1.22386 10.2239 1 10.5 1C10.7761 1 11 1.22386 11 1.5V2H12.5C13.3284 2 14 2.67157 14 3.5V12.5C14 13.3284 13.3284 14 12.5 14H2.5C1.67157 14 1 13.3284 1 12.5V3.5C1 2.67157 1.67157 2 2.5 2H4V1.5C4 1.22386 4.22386 1 4.5 1ZM10 3V3.5C10 3.77614 10.2239 4 10.5 4C10.7761 4 11 3.77614 11 3.5V3H12.5C12.7761 3 13 3.22386 13 3.5V5H2V3.5C2 3.22386 2.22386 3 2.5 3H4V3.5C4 3.77614 4.22386 4 4.5 4C4.77614 4 5 3.77614 5 3.5V3H10ZM2 6V12.5C2 12.7761 2.22386 13 2.5 13H12.5C12.7761 13 13 12.7761 13 12.5V6H2ZM7 7.5C7 7.22386 7.22386 7 7.5 7C7.77614 7 8 7.22386 8 7.5C8 7.77614 7.77614 8 7.5 8C7.22386 8 7 7.77614 7 7.5ZM9.5 7C9.22386 7 9 7.22386 9 7.5C9 7.77614 9.22386 8 9.5 8C9.77614 8 10 7.77614 10 7.5C10 7.22386 9.77614 7 9.5 7ZM11 7.5C11 7.22386 11.2239 7 11.5 7C11.7761 7 12 7.22386 12 7.5C12 7.77614 11.7761 8 11.5 8C11.2239 8 11 7.77614 11 7.5ZM11.5 9C11.2239 9 11 9.22386 11 9.5C11 9.77614 11.2239 10 11.5 10C11.7761 10 12 9.77614 12 9.5C12 9.22386 11.7761 9 11.5 9ZM9 9.5C9 9.22386 9.22386 9 9.5 9C9.77614 9 10 9.22386 10 9.5C10 9.77614 9.77614 10 9.5 10C9.22386 10 9 9.77614 9 9.5ZM7.5 9C7.22386 9 7 9.22386 7 9.5C7 9.77614 7.22386 10 7.5 10C7.77614 10 8 9.77614 8 9.5C8 9.22386 7.77614 9 7.5 9ZM5 9.5C5 9.22386 5.22386 9 5.5 9C5.77614 9 6 9.22386 6 9.5C6 9.77614 5.77614 10 5.5 10C5.22386 10 5 9.77614 5 9.5ZM3.5 9C3.22386 9 3 9.22386 3 9.5C3 9.77614 3.22386 10 3.5 10C3.77614 10 4 9.77614 4 9.5C4 9.22386 3.77614 9 3.5 9ZM3 11.5C3 11.2239 3.22386 11 3.5 11C3.77614 11 4 11.2239 4 11.5C4 11.7761 3.77614 12 3.5 12C3.22386 12 3 11.7761 3 11.5ZM5.5 11C5.22386 11 5 11.2239 5 11.5C5 11.7761 5.22386 12 5.5 12C5.77614 12 6 11.7761 6 11.5C6 11.2239 5.77614 11 5.5 11ZM7 11.5C7 11.2239 7.22386 11 7.5 11C7.77614 11 8 11.2239 8 11.5C8 11.7761 7.77614 12 7.5 12C7.22386 12 7 11.7761 7 11.5ZM9.5 11C9.22386 11 9 11.2239 9 11.5C9 11.7761 9.22386 12 9.5 12C9.77614 12 10 11.7761 10 11.5C10 11.2239 9.77614 11 9.5 11Z" fill="currentColor" fill-rule="evenodd" clip-rule="evenodd" />
    </symbol>

    <!-- radix arrow-left -->
    <symbol id="arrow-left" viewBox="0 0 15 15" fill="none">
      <path d="M6.85355 3.14645C7.04882 3.34171 7.04882 3.65829 6.85355 3.85355L3.70711 7H12.5C12.7761 7 13 7.22386 13 7.5C13 7.77614 12.7761 8 12.5 8H3.70711L6.85355 11.1464C7.04882 11.3417 7.04882 11.6583 6.85355 11.8536C6.65829 12.0488 6.34171 12.0488 6.14645 11.8536L2.14645 7.85355C1.95118 7.65829 1.95118 7.34171 2.14645 7.14645L6.14645 3.14645C6.34171 2.95118 6.65829 2.95118 6.85355 3.14645Z" fill="currentColor" fill-rule="evenodd" clip-rule="evenodd" />
    </symbol>

    <!-- lucide move-up-right -->
    <symbol id="external" viewBox="0 0 24 24" fill="none" stroke="currentColor" stroke-width="2" stroke-linecap="round" stroke-linejoin="round">
      <path d="M13 5H19V11" />
      <path d="M19 5L5 19" />
    </symbol>

    <!-- radix eye-open -->
    <symbol id="eye-open" viewBox="0 0 15 15" fill="none">
      <path d="M7.5 11C4.80285 11 2.52952 9.62184 1.09622 7.50001C2.52952 5.37816 4.80285 4 7.5 4C10.1971 4 12.4705 5.37816 13.9038 7.50001C12.4705 9.62183 10.1971 11 7.5 11ZM7.5 3C4.30786 3 1.65639 4.70638 0.0760002 7.23501C-0.0253338 7.39715 -0.0253334 7.60288 0.0760014 7.76501C1.65639 10.2936 4.30786 12 7.5 12C10.6921 12 13.3436 10.2936 14.924 7.76501C15.0253 7.60288 15.0253 7.39715 14.924 7.23501C13.3436 4.70638 10.6921 3 7.5 3ZM7.5 9.5C8.60457 9.5 9.5 8.60457 9.5 7.5C9.5 6.39543 8.60457 5.5 7.5 5.5C6.39543 5.5 5.5 6.39543 5.5 7.5C5.5 8.60457 6.39543 9.5 7.5 9.5Z" fill="currentColor" fill-rule="evenodd" clip-rule="evenodd" />
    </symbol>

    <!-- radix eye-closed -->
    <symbol id="eye-closed" viewBox="0 0 15 15" fill="none" xmlns="http://www.w3.org/2000/svg">
      <path d="M14.7649 6.07596C14.9991 6.22231 15.0703 6.53079 14.9239 6.76495C14.4849 7.46743 13.9632 8.10645 13.3702 8.66305L14.5712 9.86406C14.7664 10.0593 14.7664 10.3759 14.5712 10.5712C14.3759 10.7664 14.0593 10.7664 13.8641 10.5712L12.6011 9.30817C11.805 9.90283 10.9089 10.3621 9.93375 10.651L10.383 12.3277C10.4544 12.5944 10.2961 12.8685 10.0294 12.94C9.76267 13.0115 9.4885 12.8532 9.41704 12.5865L8.95917 10.8775C8.48743 10.958 8.00036 10.9999 7.50001 10.9999C6.99965 10.9999 6.51257 10.958 6.04082 10.8775L5.58299 12.5864C5.51153 12.8532 5.23737 13.0115 4.97064 12.94C4.7039 12.8686 4.5456 12.5944 4.61706 12.3277L5.06625 10.651C4.09111 10.3621 3.19503 9.90282 2.3989 9.30815L1.1359 10.5712C0.940638 10.7664 0.624058 10.7664 0.428798 10.5712C0.233537 10.3759 0.233537 10.0593 0.428798 9.86405L1.62982 8.66303C1.03682 8.10643 0.515113 7.46742 0.0760677 6.76495C-0.0702867 6.53079 0.000898544 6.22231 0.235065 6.07596C0.469231 5.9296 0.777703 6.00079 0.924058 6.23496C1.40354 7.00213 1.989 7.68057 2.66233 8.2427C2.67315 8.25096 2.6837 8.25972 2.69397 8.26898C4.00897 9.35527 5.65537 9.99991 7.50001 9.99991C10.3078 9.99991 12.6564 8.5063 14.076 6.23495C14.2223 6.00079 14.5308 5.9296 14.7649 6.07596Z" fill="currentColor" fill-rule="evenodd" clip-rule="evenodd" />
    </symbol>

    <!-- radix check -->
    <symbol id="check" viewBox="0 0 15 15" fill="none">
      <path d="M11.4669 3.72684C11.7558 3.91574 11.8369 4.30308 11.648 4.59198L7.39799 11.092C7.29783 11.2452 7.13556 11.3467 6.95402 11.3699C6.77247 11.3931 6.58989 11.3355 6.45446 11.2124L3.70446 8.71241C3.44905 8.48022 3.43023 8.08494 3.66242 7.82953C3.89461 7.57412 4.28989 7.55529 4.5453 7.78749L6.75292 9.79441L10.6018 3.90792C10.7907 3.61902 11.178 3.53795 11.4669 3.72684Z" fill="currentColor" fill-rule="evenodd" clip-rule="evenodd" />
    </symbol>

    <!-- radix box -->
    <symbol id="box" viewBox="0 0 15 15" fill="none">
      <path d="M12.5 2H2.5C2.22386 2 2 2.22386 2 2.5V12.5C2 12.7761 2.22386 13 2.5 13H12.5C12.7761 13 13 12.7761 13 12.5V2.5C13 2.22386 12.7761 2 12.5 2ZM2.5 1C1.67157 1 1 1.67157 1 2.5V12.5C1 13.3284 1.67157 14 2.5 14H12.5C13.3284 14 14 13.3284 14 12.5V2.5C14 1.67157 13.3284 1 12.5 1H2.5Z" fill="currentColor" fill-rule="evenodd" clip-rule="evenodd"></path>
    </symbol>

    <!-- radix loop -->
    <symbol id="loop" viewBox="0 0 15 15" fill="none">
      <path d="M3.35355 1.85355C3.54882 1.65829 3.54882 1.34171 3.35355 1.14645C3.15829 0.951184 2.84171 0.951184 2.64645 1.14645L0.646447 3.14645C0.451184 3.34171 0.451184 3.65829 0.646447 3.85355L2.64645 5.85355C2.84171 6.04882 3.15829 6.04882 3.35355 5.85355C3.54882 5.65829 3.54882 5.34171 3.35355 5.14645L2.20711 4H9.5C11.433 4 13 5.567 13 7.5C13 7.77614 13.2239 8 13.5 8C13.7761 8 14 7.77614 14 7.5C14 5.01472 11.9853 3 9.5 3H2.20711L3.35355 1.85355ZM2 7.5C2 7.22386 1.77614 7 1.5 7C1.22386 7 1 7.22386 1 7.5C1 9.98528 3.01472 12 5.5 12H12.7929L11.6464 13.1464C11.4512 13.3417 11.4512 13.6583 11.6464 13.8536C11.8417 14.0488 12.1583 14.0488 12.3536 13.8536L14.3536 11.8536C14.5488 11.6583 14.5488 11.3417 14.3536 11.1464L12.3536 9.14645C12.1583 8.95118 11.8417 8.95118 11.6464 9.14645C11.4512 9.34171 11.4512 9.65829 11.6464 9.85355L12.7929 11H5.5C3.567 11 2 9.433 2 7.5Z" fill="currentColor" fill-rule="evenodd" clip-rule="evenodd" />
    </symbol>

    <!-- radix copy -->
    <symbol id="copy" viewBox="0 0 15 15" fill="none">
      <path d="M1 9.50006C1 10.3285 1.67157 11.0001 2.5 11.0001H4L4 10.0001H2.5C2.22386 10.0001 2 9.7762 2 9.50006L2 2.50006C2 2.22392 2.22386 2.00006 2.5 2.00006L9.5 2.00006C9.77614 2.00006 10 2.22392 10 2.50006V4.00002H5.5C4.67158 4.00002 4 4.67159 4 5.50002V12.5C4 13.3284 4.67158 14 5.5 14H12.5C13.3284 14 14 13.3284 14 12.5V5.50002C14 4.67159 13.3284 4.00002 12.5 4.00002H11V2.50006C11 1.67163 10.3284 1.00006 9.5 1.00006H2.5C1.67157 1.00006 1 1.67163 1 2.50006V9.50006ZM5 5.50002C5 5.22388 5.22386 5.00002 5.5 5.00002H12.5C12.7761 5.00002 13 5.22388 13 5.50002V12.5C13 12.7762 12.7761 13 12.5 13H5.5C5.22386 13 5 12.7762 5 12.5V5.50002Z" fill="currentColor" fill-rule="evenodd" clip-rule="evenodd" />
    </symbol>

    <!-- radix list bullet -->
    <symbol id="list" viewBox="0 0 15 15" fill="none">
      <path d="M1.5 5.25C1.91421 5.25 2.25 4.91421 2.25 4.5C2.25 4.08579 1.91421 3.75 1.5 3.75C1.08579 3.75 0.75 4.08579 0.75 4.5C0.75 4.91421 1.08579 5.25 1.5 5.25ZM4 4.5C4 4.22386 4.22386 4 4.5 4H13.5C13.7761 4 14 4.22386 14 4.5C14 4.77614 13.7761 5 13.5 5H4.5C4.22386 5 4 4.77614 4 4.5ZM4.5 7C4.22386 7 4 7.22386 4 7.5C4 7.77614 4.22386 8 4.5 8H13.5C13.7761 8 14 7.77614 14 7.5C14 7.22386 13.7761 7 13.5 7H4.5ZM4.5 10C4.22386 10 4 10.2239 4 10.5C4 10.7761 4.22386 11 4.5 11H13.5C13.7761 11 14 10.7761 14 10.5C14 10.2239 13.7761 10 13.5 10H4.5ZM2.25 7.5C2.25 7.91421 1.91421 8.25 1.5 8.25C1.08579 8.25 0.75 7.91421 0.75 7.5C0.75 7.08579 1.08579 6.75 1.5 6.75C1.91421 6.75 2.25 7.08579 2.25 7.5ZM1.5 11.25C1.91421 11.25 2.25 10.9142 2.25 10.5C2.25 10.0858 1.91421 9.75 1.5 9.75C1.08579 9.75 0.75 10.0858 0.75 10.5C0.75 10.9142 1.08579 11.25 1.5 11.25Z" fill="currentColor" fill-rule="evenodd" clip-rule="evenodd" />
    </symbol>

    <!-- radix cross 2 -->
    <symbol id="cross" viewBox="0 0 15 15" fill="none">
      <path d="M11.7816 4.03157C12.0062 3.80702 12.0062 3.44295 11.7816 3.2184C11.5571 2.99385 11.193 2.99385 10.9685 3.2184L7.50005 6.68682L4.03164 3.2184C3.80708 2.99385 3.44301 2.99385 3.21846 3.2184C2.99391 3.44295 2.99391 3.80702 3.21846 4.03157L6.68688 7.49999L3.21846 10.9684C2.99391 11.193 2.99391 11.557 3.21846 11.7816C3.44301 12.0061 3.80708 12.0061 4.03164 11.7816L7.50005 8.31316L10.9685 11.7816C11.193 12.0061 11.5571 12.0061 11.7816 11.7816C12.0062 11.557 12.0062 11.193 11.7816 10.9684L8.31322 7.49999L11.7816 4.03157Z" fill="currentColor" fill-rule="evenodd" clip-rule="evenodd" />
    </symbol>

    <!-- lucide house (best to provide stroke-width manually, because I deleted the default `stroke-width="2"`) -->
    <symbol id="home" viewBox="0 0 24 24" fill="none" stroke="currentColor" stroke-linecap="round" stroke-linejoin="round">
      <path d="M15 21v-8a1 1 0 0 0-1-1h-4a1 1 0 0 0-1 1v8"/><path d="M3 10a2 2 0 0 1 .709-1.528l7-5.999a2 2 0 0 1 2.582 0l7 5.999A2 2 0 0 1 21 10v9a2 2 0 0 1-2 2H5a2 2 0 0 1-2-2z" />
    </symbol>
  </defs>
</svg>
